<svg id="图层_1" data-name="图层 1" xmlns="http://www.w3.org/2000/svg" viewBox="0 0 640 640"><defs><style>.cls-1{fill:#fff;stroke-width:9px;}.cls-1,.cls-2,.cls-3{stroke:#000;stroke-miterlimit:10;}.cls-2{fill:#4c62ab;}.cls-2,.cls-3{stroke-width:6px;}.cls-3{fill:#8ea2d5;}</style></defs><path class="cls-1" d="M330.15,439.26s101.78-122.09,101.78-187c0-57.13-47-93.91-101.78-93.91s-104.83,41.08-104.83,90.78S294.1,408,330.15,439.26Z"/><path class="cls-2" d="M363.86,223.14c1.29,9-20.63,23.21-18.7,34.82s16.23,6.44,18.76,15.47-10.37,7.74-5.22,12.9,32.24-7.74,32.24-7.74-11.6,10.31-11.6,23.21,10.31,30.95,2.58,43.84-36.11,14.19-47.72,14.19-42.55-1.29-45.13-9,6.45-28.37,0-42.55-17.41-17.57-20.31-22.89-2.43-18.91-2.43-18.91,21.29,11.17,27.58,8.27,6.28-9.67,2.9-14.51-7.26-3.87-7.74-8.7,5.8-10.16,5.8-18.38S284.72,214,284.72,206.38s15-25,21.76-25,15,5.8,15,5.8-4.35.49-12.09,5.32-8.45,35.84,2.42,40.62c8.18,3.6,41.59,4.36,15-27.56C336.73,201.87,363.51,220.69,363.86,223.14Z"/><path class="cls-3" d="M331.85,282.41s1,4.84-4.84,8.7-15.47,6.29-16.44,13.54,9.67,20.8,7.25,23.22-14,0-14,0-2.42,23.21,3.38,26.11,13.06,6.28,22.73,5.8,27.08-4.35,29-14.51-7.26-22.19-13.06-24.15-20.31-7.28-21.28-13.56,16-1.94,14.51-9.19S331.85,282.41,331.85,282.41Z"/></svg>