<?xml version="1.0" encoding="utf-8"?>
<!-- Generator: Adobe Illustrator 24.1.1, SVG Export Plug-In . SVG Version: 6.00 Build 0)  -->
<svg version="1.1" id="图层_1" xmlns="http://www.w3.org/2000/svg" xmlns:xlink="http://www.w3.org/1999/xlink" x="0px" y="0px"
	 viewBox="0 0 1080 1080" style="enable-background:new 0 0 1080 1080;" xml:space="preserve">
<style type="text/css">
	.st0{fill:#BCB046;stroke:#000000;stroke-width:9;stroke-miterlimit:10;}
	.st1{fill:#5495D6;stroke:#000000;stroke-width:9;stroke-miterlimit:10;}
	.st2{fill:none;stroke:#000000;stroke-width:9;stroke-miterlimit:10;}
	.st3{fill:#4C62AB;stroke:#000000;stroke-width:6;stroke-miterlimit:10;}
	.st4{fill:#8EA2D5;stroke:#000000;stroke-width:6;stroke-miterlimit:10;}
	.st5{fill:#FFFFFF;stroke:#000000;stroke-width:9;stroke-miterlimit:10;}
	.st6{fill:none;stroke:#000000;stroke-width:6;stroke-miterlimit:10;}
	.st7{fill:#CCCCCC;stroke:#000000;stroke-width:9;stroke-miterlimit:10;}
	.st8{fill:#B50829;}
</style>
<path class="st8" d="M545.85,1080c0,0,391.25-469.3,391.25-719c0-219.61-180.84-361-391.25-361S142.9,157.94,142.9,348.97
	S407.3,959.67,545.85,1080z"/>
<g>
	<path class="st3" d="M675.45,249.22c4.96,34.7-79.31,89.22-71.87,133.84c7.44,44.61,62.38,24.78,72.09,59.48
		s-39.87,29.74-20.04,49.57c19.83,19.83,123.92-29.74,123.92-29.74s-44.61,39.65-44.61,89.22c0,49.57,39.65,118.96,9.91,168.53
		c-29.74,49.57-138.79,54.53-183.4,54.53c-44.61,0-163.58-4.96-173.49-34.7c-9.91-29.74,24.78-109.05,0-163.58
		c-24.78-54.53-66.92-67.54-78.07-87.98c-11.15-20.45-9.35-72.69-9.35-72.69s81.85,42.94,106.01,31.79
		c24.16-11.15,24.16-37.18,11.15-55.76c-13.01-18.59-27.88-14.87-29.74-33.46s22.31-39.04,22.31-70.64s-39.04-73.73-39.04-102.85
		s57.62-96.04,83.65-96.04s57.62,22.31,57.62,22.31s-16.73,1.86-46.47,20.45s-32.47,137.77,9.29,156.14
		c31.46,13.84,159.86,16.73,57.62-105.95C571.17,167.47,674.11,239.82,675.45,249.22z"/>
	<path class="st4" d="M552.38,477.06c0,0,3.72,18.59-18.59,33.46c-22.31,14.87-59.48,24.16-63.2,52.05
		c-3.72,27.88,37.18,79.93,27.88,89.22c-9.29,9.29-53.91,0-53.91,0s-9.29,89.22,13.01,100.38c22.31,11.15,50.19,24.16,87.36,22.31
		s104.09-16.73,111.53-55.76c7.44-39.04-27.88-85.33-50.19-92.85c-22.31-7.52-78.07-27.97-81.79-52.14s61.34-7.44,55.76-35.32
		S552.38,477.06,552.38,477.06z"/>
</g>
</svg>
